<mxfile host="app.diagrams.net" modified="2024-01-31T05:33:06.864Z" agent="Mozilla/5.0 (Windows NT 10.0; Win64; x64) AppleWebKit/537.36 (KHTML, like Gecko) Chrome/121.0.0.0 Safari/537.36" etag="e47uyVqqwcSCRy1xvLoA" version="23.0.2" type="github">
  <diagram name="Page-1" id="74e2e168-ea6b-b213-b513-2b3c1d86103e">
    <mxGraphModel dx="1050" dy="522" grid="1" gridSize="10" guides="1" tooltips="1" connect="1" arrows="1" fold="1" page="1" pageScale="1" pageWidth="1100" pageHeight="850" background="none" math="0" shadow="0">
      <root>
        <mxCell id="0" />
        <mxCell id="1" parent="0" />
        <mxCell id="AEuZm_6vouHuAFjPEke--3" value="" style="edgeStyle=orthogonalEdgeStyle;rounded=0;orthogonalLoop=1;jettySize=auto;html=1;" edge="1" parent="1" source="AEuZm_6vouHuAFjPEke--1" target="AEuZm_6vouHuAFjPEke--2">
          <mxGeometry relative="1" as="geometry" />
        </mxCell>
        <mxCell id="AEuZm_6vouHuAFjPEke--1" value="START" style="ellipse;whiteSpace=wrap;html=1;" vertex="1" parent="1">
          <mxGeometry x="70" y="10" width="120" height="80" as="geometry" />
        </mxCell>
        <mxCell id="AEuZm_6vouHuAFjPEke--5" value="" style="edgeStyle=orthogonalEdgeStyle;rounded=0;orthogonalLoop=1;jettySize=auto;html=1;" edge="1" parent="1" source="AEuZm_6vouHuAFjPEke--2" target="AEuZm_6vouHuAFjPEke--4">
          <mxGeometry relative="1" as="geometry" />
        </mxCell>
        <mxCell id="AEuZm_6vouHuAFjPEke--2" value="n1,n2,total,operator" style="shape=hexagon;perimeter=hexagonPerimeter2;whiteSpace=wrap;html=1;fixedSize=1;" vertex="1" parent="1">
          <mxGeometry x="70" y="110" width="120" height="80" as="geometry" />
        </mxCell>
        <mxCell id="AEuZm_6vouHuAFjPEke--20" value="" style="edgeStyle=orthogonalEdgeStyle;rounded=0;orthogonalLoop=1;jettySize=auto;html=1;" edge="1" parent="1" source="AEuZm_6vouHuAFjPEke--4" target="AEuZm_6vouHuAFjPEke--17">
          <mxGeometry relative="1" as="geometry" />
        </mxCell>
        <mxCell id="AEuZm_6vouHuAFjPEke--4" value="Input n1,n2,&lt;br&gt;operator" style="shape=parallelogram;perimeter=parallelogramPerimeter;whiteSpace=wrap;html=1;fixedSize=1;" vertex="1" parent="1">
          <mxGeometry x="70" y="210" width="120" height="60" as="geometry" />
        </mxCell>
        <mxCell id="AEuZm_6vouHuAFjPEke--13" style="edgeStyle=orthogonalEdgeStyle;rounded=0;orthogonalLoop=1;jettySize=auto;html=1;" edge="1" parent="1" source="AEuZm_6vouHuAFjPEke--6" target="AEuZm_6vouHuAFjPEke--7">
          <mxGeometry relative="1" as="geometry" />
        </mxCell>
        <mxCell id="AEuZm_6vouHuAFjPEke--25" value="" style="edgeStyle=orthogonalEdgeStyle;rounded=0;orthogonalLoop=1;jettySize=auto;html=1;" edge="1" parent="1" source="AEuZm_6vouHuAFjPEke--6" target="AEuZm_6vouHuAFjPEke--21">
          <mxGeometry relative="1" as="geometry" />
        </mxCell>
        <mxCell id="AEuZm_6vouHuAFjPEke--6" value="operator == &quot;+&quot;" style="rhombus;whiteSpace=wrap;html=1;" vertex="1" parent="1">
          <mxGeometry x="80" y="290" width="100" height="90" as="geometry" />
        </mxCell>
        <mxCell id="AEuZm_6vouHuAFjPEke--14" value="" style="edgeStyle=orthogonalEdgeStyle;rounded=0;orthogonalLoop=1;jettySize=auto;html=1;" edge="1" parent="1" source="AEuZm_6vouHuAFjPEke--7" target="AEuZm_6vouHuAFjPEke--8">
          <mxGeometry relative="1" as="geometry" />
        </mxCell>
        <mxCell id="AEuZm_6vouHuAFjPEke--26" value="" style="edgeStyle=orthogonalEdgeStyle;rounded=0;orthogonalLoop=1;jettySize=auto;html=1;" edge="1" parent="1" source="AEuZm_6vouHuAFjPEke--7" target="AEuZm_6vouHuAFjPEke--22">
          <mxGeometry relative="1" as="geometry" />
        </mxCell>
        <mxCell id="AEuZm_6vouHuAFjPEke--7" value="operator==&quot;-&quot;" style="rhombus;whiteSpace=wrap;html=1;" vertex="1" parent="1">
          <mxGeometry x="80" y="400" width="100" height="90" as="geometry" />
        </mxCell>
        <mxCell id="AEuZm_6vouHuAFjPEke--15" value="" style="edgeStyle=orthogonalEdgeStyle;rounded=0;orthogonalLoop=1;jettySize=auto;html=1;" edge="1" parent="1" source="AEuZm_6vouHuAFjPEke--8" target="AEuZm_6vouHuAFjPEke--9">
          <mxGeometry relative="1" as="geometry" />
        </mxCell>
        <mxCell id="AEuZm_6vouHuAFjPEke--27" value="" style="edgeStyle=orthogonalEdgeStyle;rounded=0;orthogonalLoop=1;jettySize=auto;html=1;" edge="1" parent="1" source="AEuZm_6vouHuAFjPEke--8" target="AEuZm_6vouHuAFjPEke--23">
          <mxGeometry relative="1" as="geometry" />
        </mxCell>
        <mxCell id="AEuZm_6vouHuAFjPEke--8" value="operator==&quot;*&quot;" style="rhombus;whiteSpace=wrap;html=1;" vertex="1" parent="1">
          <mxGeometry x="80" y="510" width="100" height="90" as="geometry" />
        </mxCell>
        <mxCell id="AEuZm_6vouHuAFjPEke--16" style="edgeStyle=orthogonalEdgeStyle;rounded=0;orthogonalLoop=1;jettySize=auto;html=1;entryX=0.04;entryY=0.345;entryDx=0;entryDy=0;entryPerimeter=0;" edge="1" parent="1" source="AEuZm_6vouHuAFjPEke--9" target="AEuZm_6vouHuAFjPEke--10">
          <mxGeometry relative="1" as="geometry">
            <mxPoint x="50" y="830" as="targetPoint" />
            <Array as="points">
              <mxPoint x="51" y="675" />
              <mxPoint x="51" y="768" />
            </Array>
          </mxGeometry>
        </mxCell>
        <mxCell id="AEuZm_6vouHuAFjPEke--28" value="" style="edgeStyle=orthogonalEdgeStyle;rounded=0;orthogonalLoop=1;jettySize=auto;html=1;" edge="1" parent="1" source="AEuZm_6vouHuAFjPEke--9" target="AEuZm_6vouHuAFjPEke--24">
          <mxGeometry relative="1" as="geometry" />
        </mxCell>
        <mxCell id="AEuZm_6vouHuAFjPEke--9" value="operator == &quot;/&quot;" style="rhombus;whiteSpace=wrap;html=1;" vertex="1" parent="1">
          <mxGeometry x="80" y="630" width="100" height="90" as="geometry" />
        </mxCell>
        <mxCell id="AEuZm_6vouHuAFjPEke--10" value="END" style="ellipse;whiteSpace=wrap;html=1;" vertex="1" parent="1">
          <mxGeometry x="300" y="740" width="120" height="80" as="geometry" />
        </mxCell>
        <mxCell id="AEuZm_6vouHuAFjPEke--17" value="No" style="text;html=1;strokeColor=none;fillColor=none;align=center;verticalAlign=middle;whiteSpace=wrap;rounded=0;" vertex="1" parent="1">
          <mxGeometry x="60" y="380" width="60" height="30" as="geometry" />
        </mxCell>
        <mxCell id="AEuZm_6vouHuAFjPEke--18" value="No" style="text;html=1;strokeColor=none;fillColor=none;align=center;verticalAlign=middle;whiteSpace=wrap;rounded=0;" vertex="1" parent="1">
          <mxGeometry x="50" y="490" width="60" height="30" as="geometry" />
        </mxCell>
        <mxCell id="AEuZm_6vouHuAFjPEke--19" value="No" style="text;html=1;strokeColor=none;fillColor=none;align=center;verticalAlign=middle;whiteSpace=wrap;rounded=0;" vertex="1" parent="1">
          <mxGeometry x="60" y="600" width="60" height="30" as="geometry" />
        </mxCell>
        <mxCell id="AEuZm_6vouHuAFjPEke--33" value="" style="edgeStyle=orthogonalEdgeStyle;rounded=0;orthogonalLoop=1;jettySize=auto;html=1;" edge="1" parent="1" source="AEuZm_6vouHuAFjPEke--21" target="AEuZm_6vouHuAFjPEke--29">
          <mxGeometry relative="1" as="geometry" />
        </mxCell>
        <mxCell id="AEuZm_6vouHuAFjPEke--21" value="total= n1+n2" style="rhombus;whiteSpace=wrap;html=1;" vertex="1" parent="1">
          <mxGeometry x="210" y="295" width="100" height="85" as="geometry" />
        </mxCell>
        <mxCell id="AEuZm_6vouHuAFjPEke--34" value="" style="edgeStyle=orthogonalEdgeStyle;rounded=0;orthogonalLoop=1;jettySize=auto;html=1;" edge="1" parent="1" source="AEuZm_6vouHuAFjPEke--22" target="AEuZm_6vouHuAFjPEke--30">
          <mxGeometry relative="1" as="geometry" />
        </mxCell>
        <mxCell id="AEuZm_6vouHuAFjPEke--22" value="total= n1-n2" style="rhombus;whiteSpace=wrap;html=1;" vertex="1" parent="1">
          <mxGeometry x="210" y="402.5" width="100" height="85" as="geometry" />
        </mxCell>
        <mxCell id="AEuZm_6vouHuAFjPEke--35" value="" style="edgeStyle=orthogonalEdgeStyle;rounded=0;orthogonalLoop=1;jettySize=auto;html=1;" edge="1" parent="1" source="AEuZm_6vouHuAFjPEke--23" target="AEuZm_6vouHuAFjPEke--31">
          <mxGeometry relative="1" as="geometry" />
        </mxCell>
        <mxCell id="AEuZm_6vouHuAFjPEke--23" value="total= n1*n2" style="rhombus;whiteSpace=wrap;html=1;" vertex="1" parent="1">
          <mxGeometry x="210" y="512.5" width="100" height="85" as="geometry" />
        </mxCell>
        <mxCell id="AEuZm_6vouHuAFjPEke--36" value="" style="edgeStyle=orthogonalEdgeStyle;rounded=0;orthogonalLoop=1;jettySize=auto;html=1;" edge="1" parent="1" source="AEuZm_6vouHuAFjPEke--24" target="AEuZm_6vouHuAFjPEke--32">
          <mxGeometry relative="1" as="geometry" />
        </mxCell>
        <mxCell id="AEuZm_6vouHuAFjPEke--24" value="total= n1/n2" style="rhombus;whiteSpace=wrap;html=1;" vertex="1" parent="1">
          <mxGeometry x="210" y="632.5" width="100" height="85" as="geometry" />
        </mxCell>
        <mxCell id="AEuZm_6vouHuAFjPEke--39" style="edgeStyle=orthogonalEdgeStyle;rounded=0;orthogonalLoop=1;jettySize=auto;html=1;entryX=1;entryY=0.5;entryDx=0;entryDy=0;" edge="1" parent="1">
          <mxGeometry relative="1" as="geometry">
            <mxPoint x="420" y="792" as="targetPoint" />
            <mxPoint x="450" y="350" as="sourcePoint" />
            <Array as="points">
              <mxPoint x="611" y="350" />
              <mxPoint x="611" y="792" />
            </Array>
          </mxGeometry>
        </mxCell>
        <mxCell id="AEuZm_6vouHuAFjPEke--29" value="Output total" style="shape=parallelogram;perimeter=parallelogramPerimeter;whiteSpace=wrap;html=1;fixedSize=1;" vertex="1" parent="1">
          <mxGeometry x="340" y="308" width="120" height="60" as="geometry" />
        </mxCell>
        <mxCell id="AEuZm_6vouHuAFjPEke--43" style="edgeStyle=orthogonalEdgeStyle;rounded=0;orthogonalLoop=1;jettySize=auto;html=1;entryX=1;entryY=0.5;entryDx=0;entryDy=0;" edge="1" parent="1" source="AEuZm_6vouHuAFjPEke--30" target="AEuZm_6vouHuAFjPEke--10">
          <mxGeometry relative="1" as="geometry">
            <mxPoint x="550" y="780" as="targetPoint" />
            <Array as="points">
              <mxPoint x="551" y="445" />
              <mxPoint x="551" y="780" />
            </Array>
          </mxGeometry>
        </mxCell>
        <mxCell id="AEuZm_6vouHuAFjPEke--30" value="Output total" style="shape=parallelogram;perimeter=parallelogramPerimeter;whiteSpace=wrap;html=1;fixedSize=1;" vertex="1" parent="1">
          <mxGeometry x="340" y="415" width="120" height="60" as="geometry" />
        </mxCell>
        <mxCell id="AEuZm_6vouHuAFjPEke--42" value="" style="edgeStyle=orthogonalEdgeStyle;rounded=0;orthogonalLoop=1;jettySize=auto;html=1;entryX=1;entryY=0.25;entryDx=0;entryDy=0;entryPerimeter=0;" edge="1" parent="1" source="AEuZm_6vouHuAFjPEke--31" target="AEuZm_6vouHuAFjPEke--10">
          <mxGeometry relative="1" as="geometry">
            <mxPoint x="490" y="760" as="targetPoint" />
            <Array as="points">
              <mxPoint x="491" y="555" />
              <mxPoint x="491" y="760" />
            </Array>
          </mxGeometry>
        </mxCell>
        <mxCell id="AEuZm_6vouHuAFjPEke--31" value="Output total" style="shape=parallelogram;perimeter=parallelogramPerimeter;whiteSpace=wrap;html=1;fixedSize=1;" vertex="1" parent="1">
          <mxGeometry x="330" y="525" width="120" height="60" as="geometry" />
        </mxCell>
        <mxCell id="AEuZm_6vouHuAFjPEke--40" value="" style="edgeStyle=orthogonalEdgeStyle;rounded=0;orthogonalLoop=1;jettySize=auto;html=1;" edge="1" parent="1" source="AEuZm_6vouHuAFjPEke--32" target="AEuZm_6vouHuAFjPEke--10">
          <mxGeometry relative="1" as="geometry" />
        </mxCell>
        <mxCell id="AEuZm_6vouHuAFjPEke--32" value="Output total" style="shape=parallelogram;perimeter=parallelogramPerimeter;whiteSpace=wrap;html=1;fixedSize=1;" vertex="1" parent="1">
          <mxGeometry x="330" y="645" width="120" height="60" as="geometry" />
        </mxCell>
      </root>
    </mxGraphModel>
  </diagram>
</mxfile>
